<svg xmlns="http://www.w3.org/2000/svg" version="1.1" xmlns:xlink="http://www.w3.org/1999/xlink" xmlns:svgjs="http://svgjs.dev/svgjs" viewBox="0 0 800 800"><defs><linearGradient x1="50%" y1="0%" x2="50%" y2="100%" id="ffflurry-grad" gradientTransform="rotate(270)"><stop stop-color="hsl(238, 82%, 13%)" stop-opacity="1" offset="0%"></stop><stop stop-color="hsl(105, 69%, 40%)" stop-opacity="1" offset="45%"></stop><stop stop-color="hsl(105, 69%, 60%)" stop-opacity="1" offset="100%"></stop></linearGradient></defs><rect width="100%" height="100%" fill="hsl(238, 82%, 13%)"></rect><g fill="url(#ffflurry-grad)"><rect width="380" height="3" x="274" y="230.5" rx="1.5" transform="rotate(45, 464, 232)" opacity="0.19"></rect><rect width="59" height="3" x="375.5" y="759.5" rx="1.5" transform="rotate(45, 405, 761)" opacity="0.51"></rect><rect width="419" height="3" x="310.5" y="28.5" rx="1.5" transform="rotate(45, 520, 30)" opacity="0.48"></rect><rect width="643" height="3" x="347.5" y="439.5" rx="1.5" transform="rotate(45, 669, 441)" opacity="0.47"></rect><rect width="640" height="3" x="-249" y="506.5" rx="1.5" transform="rotate(45, 71, 508)" opacity="0.70"></rect><rect width="70" height="3" x="197" y="132.5" rx="1.5" transform="rotate(45, 232, 134)" opacity="0.27"></rect><rect width="111" height="3" x="109.5" y="209.5" rx="1.5" transform="rotate(45, 165, 211)" opacity="0.13"></rect><rect width="68" height="3" x="589" y="198.5" rx="1.5" transform="rotate(45, 623, 200)" opacity="0.64"></rect><rect width="50" height="3" x="510" y="750.5" rx="1.5" transform="rotate(45, 535, 752)" opacity="0.82"></rect><rect width="304" height="3" x="347" y="585.5" rx="1.5" transform="rotate(45, 499, 587)" opacity="0.08"></rect><rect width="256" height="3" x="13" y="53.5" rx="1.5" transform="rotate(45, 141, 55)" opacity="0.78"></rect><rect width="479" height="3" x="517.5" y="46.5" rx="1.5" transform="rotate(45, 757, 48)" opacity="0.22"></rect><rect width="279" height="3" x="619.5" y="277.5" rx="1.5" transform="rotate(45, 759, 279)" opacity="0.63"></rect><rect width="501" height="3" x="442.5" y="756.5" rx="1.5" transform="rotate(45, 693, 758)" opacity="0.54"></rect><rect width="103" height="3" x="374.5" y="686.5" rx="1.5" transform="rotate(45, 426, 688)" opacity="0.54"></rect><rect width="666" height="3" x="-161" y="657.5" rx="1.5" transform="rotate(45, 172, 659)" opacity="0.14"></rect><rect width="309" height="3" x="495.5" y="29.5" rx="1.5" transform="rotate(45, 650, 31)" opacity="0.75"></rect><rect width="374" height="3" x="13" y="465.5" rx="1.5" transform="rotate(45, 200, 467)" opacity="0.52"></rect><rect width="629" height="3" x="-114.5" y="327.5" rx="1.5" transform="rotate(45, 200, 329)" opacity="0.65"></rect><rect width="118" height="3" x="607" y="337.5" rx="1.5" transform="rotate(45, 666, 339)" opacity="0.94"></rect><rect width="484" height="3" x="348" y="652.5" rx="1.5" transform="rotate(45, 590, 654)" opacity="0.71"></rect><rect width="231" height="3" x="419.5" y="375.5" rx="1.5" transform="rotate(45, 535, 377)" opacity="0.29"></rect><rect width="289" height="3" x="329.5" y="145.5" rx="1.5" transform="rotate(45, 474, 147)" opacity="0.96"></rect><rect width="236" height="3" x="518" y="552.5" rx="1.5" transform="rotate(45, 636, 554)" opacity="0.75"></rect><rect width="219" height="3" x="418.5" y="461.5" rx="1.5" transform="rotate(45, 528, 463)" opacity="0.53"></rect><rect width="184" height="3" x="266" y="621.5" rx="1.5" transform="rotate(45, 358, 623)" opacity="0.86"></rect><rect width="323" height="3" x="258.5" y="93.5" rx="1.5" transform="rotate(45, 420, 95)" opacity="0.97"></rect><rect width="117" height="3" x="709.5" y="746.5" rx="1.5" transform="rotate(45, 768, 748)" opacity="0.42"></rect><rect width="314" height="3" x="352" y="672.5" rx="1.5" transform="rotate(45, 509, 674)" opacity="0.50"></rect><rect width="639" height="3" x="-257.5" y="418.5" rx="1.5" transform="rotate(45, 62, 420)" opacity="0.16"></rect><rect width="681" height="3" x="-60.5" y="421.5" rx="1.5" transform="rotate(45, 280, 423)" opacity="0.46"></rect><rect width="434" height="3" x="65" y="582.5" rx="1.5" transform="rotate(45, 282, 584)" opacity="0.41"></rect><rect width="392" height="3" x="221" y="27.5" rx="1.5" transform="rotate(45, 417, 29)" opacity="0.27"></rect><rect width="354" height="3" x="289" y="764.5" rx="1.5" transform="rotate(45, 466, 766)" opacity="0.87"></rect><rect width="350" height="3" x="353" y="225.5" rx="1.5" transform="rotate(45, 528, 227)" opacity="0.13"></rect><rect width="284" height="3" x="187" y="138.5" rx="1.5" transform="rotate(45, 329, 140)" opacity="0.92"></rect><rect width="392" height="3" x="358" y="563.5" rx="1.5" transform="rotate(45, 554, 565)" opacity="0.21"></rect><rect width="435" height="3" x="384.5" y="88.5" rx="1.5" transform="rotate(45, 602, 90)" opacity="0.13"></rect><rect width="269" height="3" x="108.5" y="40.5" rx="1.5" transform="rotate(45, 243, 42)" opacity="0.83"></rect><rect width="152" height="3" x="523" y="250.5" rx="1.5" transform="rotate(45, 599, 252)" opacity="0.86"></rect><rect width="486" height="3" x="251" y="297.5" rx="1.5" transform="rotate(45, 494, 299)" opacity="0.62"></rect><rect width="212" height="3" x="660" y="552.5" rx="1.5" transform="rotate(45, 766, 554)" opacity="0.15"></rect><rect width="327" height="3" x="215.5" y="499.5" rx="1.5" transform="rotate(45, 379, 501)" opacity="0.79"></rect><rect width="155" height="3" x="504.5" y="504.5" rx="1.5" transform="rotate(45, 582, 506)" opacity="0.36"></rect><rect width="499" height="3" x="187.5" y="381.5" rx="1.5" transform="rotate(45, 437, 383)" opacity="0.42"></rect><rect width="713" height="3" x="-111.5" y="736.5" rx="1.5" transform="rotate(45, 245, 738)" opacity="0.15"></rect><rect width="512" height="3" x="268" y="95.5" rx="1.5" transform="rotate(45, 524, 97)" opacity="0.83"></rect><rect width="494" height="3" x="-73" y="555.5" rx="1.5" transform="rotate(45, 174, 557)" opacity="0.12"></rect><rect width="251" height="3" x="435.5" y="167.5" rx="1.5" transform="rotate(45, 561, 169)" opacity="0.30"></rect><rect width="561" height="3" x="479.5" y="162.5" rx="1.5" transform="rotate(45, 760, 164)" opacity="0.18"></rect><rect width="285" height="3" x="189.5" y="45.5" rx="1.5" transform="rotate(45, 332, 47)" opacity="0.15"></rect><rect width="81" height="3" x="712.5" y="387.5" rx="1.5" transform="rotate(45, 753, 389)" opacity="0.51"></rect><rect width="474" height="3" x="347" y="313.5" rx="1.5" transform="rotate(45, 584, 315)" opacity="0.86"></rect><rect width="698" height="3" x="-75" y="238.5" rx="1.5" transform="rotate(45, 274, 240)" opacity="1.00"></rect><rect width="455" height="3" x="-173.5" y="616.5" rx="1.5" transform="rotate(45, 54, 618)" opacity="0.49"></rect><rect width="111" height="3" x="607.5" y="159.5" rx="1.5" transform="rotate(45, 663, 161)" opacity="0.83"></rect><rect width="54" height="3" x="13" y="235.5" rx="1.5" transform="rotate(45, 40, 237)" opacity="0.70"></rect><rect width="86" height="3" x="554" y="425.5" rx="1.5" transform="rotate(45, 597, 427)" opacity="0.54"></rect><rect width="272" height="3" x="585" y="598.5" rx="1.5" transform="rotate(45, 721, 600)" opacity="0.32"></rect><rect width="190" height="3" x="620" y="681.5" rx="1.5" transform="rotate(45, 715, 683)" opacity="0.10"></rect><rect width="745" height="3" x="-291.5" y="743.5" rx="1.5" transform="rotate(45, 81, 745)" opacity="0.25"></rect><rect width="106" height="3" x="634" y="240.5" rx="1.5" transform="rotate(45, 687, 242)" opacity="0.99"></rect><rect width="126" height="3" x="404" y="480.5" rx="1.5" transform="rotate(45, 467, 482)" opacity="0.08"></rect><rect width="436" height="3" x="443" y="630.5" rx="1.5" transform="rotate(45, 661, 632)" opacity="0.74"></rect><rect width="343" height="3" x="233.5" y="178.5" rx="1.5" transform="rotate(45, 405, 180)" opacity="0.72"></rect><rect width="135" height="3" x="308.5" y="252.5" rx="1.5" transform="rotate(45, 376, 254)" opacity="0.53"></rect><rect width="278" height="3" x="477" y="746.5" rx="1.5" transform="rotate(45, 616, 748)" opacity="0.78"></rect><rect width="364" height="3" x="-141" y="69.5" rx="1.5" transform="rotate(45, 41, 71)" opacity="0.31"></rect><rect width="334" height="3" x="609" y="634.5" rx="1.5" transform="rotate(45, 776, 636)" opacity="0.83"></rect><rect width="181" height="3" x="605.5" y="100.5" rx="1.5" transform="rotate(45, 696, 102)" opacity="0.81"></rect><rect width="211" height="3" x="234.5" y="736.5" rx="1.5" transform="rotate(45, 340, 738)" opacity="0.11"></rect><rect width="409" height="3" x="-124.5" y="327.5" rx="1.5" transform="rotate(45, 80, 329)" opacity="0.98"></rect><rect width="134" height="3" x="630" y="519.5" rx="1.5" transform="rotate(45, 697, 521)" opacity="0.27"></rect><rect width="489" height="3" x="-155.5" y="160.5" rx="1.5" transform="rotate(45, 89, 162)" opacity="0.09"></rect><rect width="192" height="3" x="665" y="478.5" rx="1.5" transform="rotate(45, 761, 480)" opacity="0.58"></rect><rect width="574" height="3" x="61" y="345.5" rx="1.5" transform="rotate(45, 348, 347)" opacity="0.35"></rect><rect width="405" height="3" x="235.5" y="602.5" rx="1.5" transform="rotate(45, 438, 604)" opacity="0.73"></rect></g></svg>